<mxfile host="app.diagrams.net" modified="2023-09-29T13:07:33.369Z" agent="Mozilla/5.0 (Windows NT 10.0; Win64; x64) AppleWebKit/537.36 (KHTML, like Gecko) Chrome/116.0.5845.2271 YaBrowser/23.9.0.2271 Yowser/2.5 Safari/537.36" etag="uF6V09fZbBR7LEC7sGPy" version="21.3.8" type="github">
  <diagram name="Страница 1" id="ukWCFzJ30qbdiKKGUXKz">
    <mxGraphModel dx="1216" dy="682" grid="1" gridSize="10" guides="1" tooltips="1" connect="1" arrows="1" fold="1" page="0" pageScale="1" pageWidth="827" pageHeight="1169" math="0" shadow="0">
      <root>
        <mxCell id="0" />
        <mxCell id="1" parent="0" />
      </root>
    </mxGraphModel>
  </diagram>
</mxfile>
